<?xml version="1.0" encoding="UTF-8" standalone="no"?>
<svg
   xmlns:dc="http://purl.org/dc/elements/1.1/"
   xmlns:cc="http://creativecommons.org/ns#"
   xmlns:rdf="http://www.w3.org/1999/02/22-rdf-syntax-ns#"
   xmlns:svg="http://www.w3.org/2000/svg"
   xmlns="http://www.w3.org/2000/svg"
   viewBox="0 0 258.66666 258.66666"
   height="258.66666"
   width="258.66666"
   xml:space="preserve"
   id="svg2"
   version="1.1"><metadata
     id="metadata8"><rdf:RDF><cc:Work
         rdf:about=""><dc:format>image/svg+xml</dc:format><dc:type
           rdf:resource="http://purl.org/dc/dcmitype/StillImage" /></cc:Work></rdf:RDF></metadata><defs
     id="defs6"><clipPath
       id="clipPath22"
       clipPathUnits="userSpaceOnUse"><path
         style="clip-rule:evenodd"
         id="path20"
         d="m 966.379,516.742 c 475.281,0 860.591,202.692 860.591,452.707 0,250.011 -385.31,452.711 -860.591,452.711 -475.285,0 -860.598,-202.7 -860.598,-452.711 0,-250.015 385.313,-452.707 860.598,-452.707 z" /></clipPath></defs><g
     transform="matrix(1.3333333,0,0,-1.3333333,0,258.66667)"
     id="g10"><g
       transform="scale(0.1)"
       id="g12"><path
         id="path14"
         style="fill:#ffffff;fill-opacity:1;fill-rule:evenodd;stroke:none"
         d="M 2.59766,1933.23 H 1930.16 V 5.66797 H 2.59766 V 1933.23" /><g
         id="g16"><g
           clip-path="url(#clipPath22)"
           id="g18"><path
             id="path24"
             style="fill:#231f20;fill-opacity:1;fill-rule:nonzero;stroke:none"
             d="m 966.379,516.742 c 475.281,0 860.591,202.692 860.591,452.707 0,250.011 -385.31,452.711 -860.591,452.711 -475.285,0 -860.598,-202.7 -860.598,-452.711 0,-250.015 385.313,-452.707 860.598,-452.707 z M 1826.97,1422.16 H 105.78 V 516.746 h 1721.19 z m -1290.888,0 H 2133.06 c 0,881.98 -714.99,1596.98 -1596.978,1596.98 -881.988,0 -1596.982,-715 -1596.982,-1596.98 0,-881.992 714.994,-1596.988 1596.982,-1596.988 881.988,0 1596.978,714.996 1596.978,1596.988" /><path
             id="path26"
             style="fill:#231f20;fill-opacity:1;fill-rule:nonzero;stroke:none"
             d="M 536.082,1422.16 H 1653.97 c 0,617.39 -500.5,1117.88 -1117.888,1117.88 -617.3906,0 -1117.891,-500.49 -1117.891,-1117.88 0,-617.394 500.5004,-1117.89 1117.891,-1117.89 617.388,0 1117.888,500.496 1117.888,1117.89" /><path
             id="path28"
             style="fill:#262223;fill-opacity:1;fill-rule:nonzero;stroke:none"
             d="M 536.082,1422.16 H 1645.23 c 0,612.56 -496.58,1109.15 -1109.148,1109.15 -612.5664,0 -1109.156,-496.59 -1109.156,-1109.15 C -573.074,809.59 -76.4844,313 536.082,313 1148.65,313 1645.23,809.59 1645.23,1422.16" /><path
             id="path30"
             style="fill:#282426;fill-opacity:1;fill-rule:nonzero;stroke:none"
             d="M 536.082,1422.16 H 1636.5 c 0,607.74 -492.68,1100.42 -1100.418,1100.42 -607.7422,0 -1100.422,-492.68 -1100.422,-1100.42 0,-607.746 492.6798,-1100.426 1100.422,-1100.426 607.738,0 1100.418,492.68 1100.418,1100.426" /><path
             id="path32"
             style="fill:#2b2729;fill-opacity:1;fill-rule:nonzero;stroke:none"
             d="M 536.082,1422.16 H 1627.77 c 0,602.92 -488.77,1091.68 -1091.688,1091.68 -602.9218,0 -1091.687,-488.76 -1091.687,-1091.68 0,-602.926 488.7652,-1091.691 1091.687,-1091.691 602.918,0 1091.688,488.765 1091.688,1091.691" /><path
             id="path34"
             style="fill:#2e2a2c;fill-opacity:1;fill-rule:nonzero;stroke:none"
             d="M 536.082,1422.16 H 1619.04 c 0,598.09 -484.86,1082.95 -1082.958,1082.95 -598.0976,0 -1082.957,-484.86 -1082.957,-1082.95 0,-598.101 484.8594,-1082.957 1082.957,-1082.957 598.098,0 1082.958,484.856 1082.958,1082.957" /><path
             id="path36"
             style="fill:#312d2f;fill-opacity:1;fill-rule:nonzero;stroke:none"
             d="M 536.082,1422.16 H 1610.3 c 0,593.27 -480.94,1074.22 -1074.218,1074.22 -593.2734,0 -1074.223,-480.95 -1074.223,-1074.22 0,-593.277 480.9496,-1074.226 1074.223,-1074.226 593.278,0 1074.218,480.949 1074.218,1074.226" /><path
             id="path38"
             style="fill:#332f31;fill-opacity:1;fill-rule:nonzero;stroke:none"
             d="M 536.082,1422.16 H 1601.57 c 0,588.45 -477.04,1065.48 -1065.488,1065.48 -588.4492,0 -1065.488,-477.03 -1065.488,-1065.48 0,-588.453 477.0388,-1065.492 1065.488,-1065.492 588.448,0 1065.488,477.039 1065.488,1065.492" /><path
             id="path40"
             style="fill:#353134;fill-opacity:1;fill-rule:nonzero;stroke:none"
             d="M 536.082,1422.16 H 1592.83 c 0,583.62 -473.12,1056.75 -1056.748,1056.75 -583.625,0 -1056.754,-473.13 -1056.754,-1056.75 0,-583.629 473.129,-1056.758 1056.754,-1056.758 583.628,0 1056.748,473.129 1056.748,1056.758" /><path
             id="path42"
             style="fill:#383437;fill-opacity:1;fill-rule:nonzero;stroke:none"
             d="M 536.082,1422.16 H 1584.1 c 0,578.8 -469.21,1048.02 -1048.018,1048.02 -578.8047,0 -1048.02,-469.22 -1048.02,-1048.02 0,-578.808 469.2153,-1048.023 1048.02,-1048.023 578.808,0 1048.018,469.215 1048.018,1048.023" /><path
             id="path44"
             style="fill:#393639;fill-opacity:1;fill-rule:nonzero;stroke:none"
             d="M 536.082,1422.16 H 1575.37 c 0,573.98 -465.31,1039.28 -1039.288,1039.28 -573.9804,0 -1039.289,-465.3 -1039.289,-1039.28 0,-573.984 465.3086,-1039.289 1039.289,-1039.289 573.978,0 1039.288,465.305 1039.288,1039.289" /><path
             id="path46"
             style="fill:#3c383c;fill-opacity:1;fill-rule:nonzero;stroke:none"
             d="M 536.082,1422.16 H 1566.63 c 0,569.15 -461.39,1030.55 -1030.548,1030.55 -569.1562,0 -1030.555,-461.4 -1030.555,-1030.55 C -494.473,853 -33.0742,391.602 536.082,391.602 1105.24,391.602 1566.63,853 1566.63,1422.16" /><path
             id="path48"
             style="fill:#3e3a3f;fill-opacity:1;fill-rule:nonzero;stroke:none"
             d="M 536.082,1422.16 H 1557.9 c 0,564.33 -457.49,1021.82 -1021.818,1021.82 -564.332,0 -1021.82,-457.49 -1021.82,-1021.82 0,-564.336 457.488,-1021.824 1021.82,-1021.824 564.328,0 1021.818,457.488 1021.818,1021.824" /><path
             id="path50"
             style="fill:#403d41;fill-opacity:1;fill-rule:nonzero;stroke:none"
             d="M 536.082,1422.16 H 1549.17 c 0,559.51 -453.58,1013.08 -1013.088,1013.08 -559.5117,0 -1013.086,-453.57 -1013.086,-1013.08 0,-559.515 453.5743,-1013.09 1013.086,-1013.09 559.508,0 1013.088,453.575 1013.088,1013.09" /><path
             id="path52"
             style="fill:#413e44;fill-opacity:1;fill-rule:nonzero;stroke:none"
             d="M 536.082,1422.16 H 1540.43 c 0,554.68 -449.66,1004.35 -1004.348,1004.35 -554.6875,0 -1004.355,-449.67 -1004.355,-1004.35 0,-554.691 449.6675,-1004.355 1004.355,-1004.355 554.688,0 1004.348,449.664 1004.348,1004.355" /><path
             id="path54"
             style="fill:#434046;fill-opacity:1;fill-rule:nonzero;stroke:none"
             d="M 536.082,1422.16 H 1531.7 c 0,549.86 -445.75,995.61 -995.618,995.61 -549.8633,0 -995.621,-445.75 -995.621,-995.61 0,-549.867 445.7577,-995.621 995.621,-995.621 549.868,0 995.618,445.754 995.618,995.621" /><path
             id="path56"
             style="fill:#454249;fill-opacity:1;fill-rule:nonzero;stroke:none"
             d="m 536.082,1422.16 h 986.878 c 0,545.04 -441.84,986.88 -986.878,986.88 -545.03903,0 -986.887,-441.84 -986.887,-986.88 0,-545.043 441.84797,-986.89 986.887,-986.89 545.038,0 986.878,441.847 986.878,986.89" /><path
             id="path58"
             style="fill:#47444b;fill-opacity:1;fill-rule:nonzero;stroke:none"
             d="m 536.082,1422.16 h 978.148 c 0,540.21 -437.93,978.15 -978.148,978.15 -540.21481,0 -978.152,-437.94 -978.152,-978.15 0,-540.219 437.93719,-978.156 978.152,-978.156 540.218,0 978.148,437.937 978.148,978.156" /><path
             id="path60"
             style="fill:#48464d;fill-opacity:1;fill-rule:nonzero;stroke:none"
             d="M 536.082,1422.16 H 1505.5 c 0,535.39 -434.02,969.41 -969.418,969.41 -535.3945,0 -969.418,-434.02 -969.418,-969.41 0,-535.398 434.0235,-969.422 969.418,-969.422 535.398,0 969.418,434.024 969.418,969.422" /><path
             id="path62"
             style="fill:#4a4750;fill-opacity:1;fill-rule:nonzero;stroke:none"
             d="m 536.082,1422.16 h 960.688 c 0,530.57 -430.12,960.68 -960.688,960.68 -530.57028,0 -960.687,-430.11 -960.687,-960.68 0,-530.574 430.11672,-960.687 960.687,-960.687 530.568,0 960.688,430.113 960.688,960.687" /><path
             id="path64"
             style="fill:#4b4952;fill-opacity:1;fill-rule:nonzero;stroke:none"
             d="m 536.082,1422.16 h 951.948 c 0,525.74 -426.2,951.95 -951.948,951.95 -525.7461,0 -951.953,-426.21 -951.953,-951.95 0,-525.75 426.2069,-951.957 951.953,-951.957 525.748,0 951.948,426.207 951.948,951.957" /><path
             id="path66"
             style="fill:#4d4a54;fill-opacity:1;fill-rule:nonzero;stroke:none"
             d="M 536.082,1422.16 H 1479.3 c 0,520.92 -422.3,943.22 -943.218,943.22 -520.9218,0 -943.219,-422.3 -943.219,-943.22 0,-520.926 422.2972,-943.222 943.219,-943.222 520.918,0 943.218,422.296 943.218,943.222" /><path
             id="path68"
             style="fill:#4e4c57;fill-opacity:1;fill-rule:nonzero;stroke:none"
             d="m 536.082,1422.16 h 934.478 c 0,516.09 -418.38,934.48 -934.478,934.48 -516.0976,0 -934.484,-418.39 -934.484,-934.48 0,-516.101 418.3864,-934.488 934.484,-934.488 516.098,0 934.478,418.387 934.478,934.488" /><path
             id="path70"
             style="fill:#4f4e59;fill-opacity:1;fill-rule:nonzero;stroke:none"
             d="m 536.082,1422.16 h 925.748 c 0,511.27 -414.47,925.75 -925.748,925.75 -511.2773,0 -925.75,-414.48 -925.75,-925.75 0,-511.281 414.4727,-925.754 925.75,-925.754 511.278,0 925.748,414.473 925.748,925.754" /><path
             id="path72"
             style="fill:#504f5b;fill-opacity:1;fill-rule:nonzero;stroke:none"
             d="M 536.082,1422.16 H 1453.1 c 0,506.45 -410.56,917.01 -917.018,917.01 -506.4531,0 -917.02,-410.56 -917.02,-917.01 0,-506.457 410.5669,-917.019 917.02,-917.019 506.458,0 917.018,410.562 917.018,917.019" /><path
             id="path74"
             style="fill:#51505d;fill-opacity:1;fill-rule:nonzero;stroke:none"
             d="m 536.082,1422.16 h 908.278 c 0,501.63 -406.65,908.28 -908.278,908.28 -501.6289,0 -908.285,-406.65 -908.285,-908.28 0,-501.633 406.6561,-908.289 908.285,-908.289 501.628,0 908.278,406.656 908.278,908.289" /><path
             id="path76"
             style="fill:#52525f;fill-opacity:1;fill-rule:nonzero;stroke:none"
             d="m 536.082,1422.16 h 899.548 c 0,496.8 -402.74,899.55 -899.548,899.55 -496.8047,0 -899.551,-402.75 -899.551,-899.55 0,-496.808 402.7463,-899.555 899.551,-899.555 496.808,0 899.548,402.747 899.548,899.555" /><path
             id="path78"
             style="fill:#535361;fill-opacity:1;fill-rule:nonzero;stroke:none"
             d="m 536.082,1422.16 h 890.808 c 0,491.98 -398.83,890.81 -890.808,890.81 -491.9804,0 -890.816,-398.83 -890.816,-890.81 0,-491.984 398.8356,-890.82 890.816,-890.82 491.978,0 890.808,398.836 890.808,890.82" /><path
             id="path80"
             style="fill:#545463;fill-opacity:1;fill-rule:nonzero;stroke:none"
             d="m 536.082,1422.16 h 882.078 c 0,487.16 -394.92,882.08 -882.078,882.08 -487.1601,0 -882.086,-394.92 -882.086,-882.08 0,-487.164 394.9259,-882.086 882.086,-882.086 487.158,0 882.078,394.922 882.078,882.086" /><path
             id="path82"
             style="fill:#555565;fill-opacity:1;fill-rule:nonzero;stroke:none"
             d="m 536.082,1422.16 h 873.348 c 0,482.33 -391.01,873.34 -873.348,873.34 -482.3359,0 -873.352,-391.01 -873.352,-873.34 0,-482.34 391.0161,-873.351 873.352,-873.351 482.338,0 873.348,391.011 873.348,873.351" /><path
             id="path84"
             style="fill:#565667;fill-opacity:1;fill-rule:nonzero;stroke:none"
             d="M 536.082,1422.16 H 1400.7 c 0,477.51 -387.11,864.61 -864.618,864.61 -477.5117,0 -864.617,-387.1 -864.617,-864.61 0,-477.515 387.1053,-864.621 864.617,-864.621 477.508,0 864.618,387.106 864.618,864.621" /><path
             id="path86"
             style="fill:#565769;fill-opacity:1;fill-rule:nonzero;stroke:none"
             d="m 536.082,1422.16 h 855.878 c 0,472.68 -383.19,855.88 -855.878,855.88 -472.6875,0 -855.883,-383.2 -855.883,-855.88 0,-472.691 383.1955,-855.887 855.883,-855.887 472.688,0 855.878,383.196 855.878,855.887" /><path
             id="path88"
             style="fill:#57586b;fill-opacity:1;fill-rule:nonzero;stroke:none"
             d="m 536.082,1422.16 h 847.148 c 0,467.86 -379.28,847.14 -847.148,847.14 -467.8632,0 -847.148,-379.28 -847.148,-847.14 0,-467.867 379.2848,-847.152 847.148,-847.152 467.868,0 847.148,379.285 847.148,847.152" /><path
             id="path90"
             style="fill:#57596d;fill-opacity:1;fill-rule:nonzero;stroke:none"
             d="M 536.082,1422.16 H 1374.5 c 0,463.04 -375.375,838.41 -838.418,838.41 -463.0429,0 -838.418,-375.37 -838.418,-838.41 0,-463.047 375.3751,-838.418 838.418,-838.418 463.043,0 838.418,375.371 838.418,838.418" /><path
             id="path92"
             style="fill:#585a6f;fill-opacity:1;fill-rule:nonzero;stroke:none"
             d="m 536.082,1422.16 h 829.678 c 0,458.22 -371.459,829.68 -829.678,829.68 -458.2187,0 -829.684,-371.46 -829.684,-829.68 0,-458.222 371.4653,-829.687 829.684,-829.687 458.219,0 829.678,371.465 829.678,829.687" /><path
             id="path94"
             style="fill:#585b71;fill-opacity:1;fill-rule:nonzero;stroke:none"
             d="m 536.082,1422.16 h 820.948 c 0,453.39 -367.553,820.95 -820.948,820.95 -453.3945,0 -820.949,-367.56 -820.949,-820.95 0,-453.398 367.5545,-820.953 820.949,-820.953 453.395,0 820.948,367.555 820.948,820.953" /><path
             id="path96"
             style="fill:#595c73;fill-opacity:1;fill-rule:nonzero;stroke:none"
             d="m 536.082,1422.16 h 812.208 c 0,448.57 -363.638,812.21 -812.208,812.21 -448.5703,0 -812.215,-363.64 -812.215,-812.21 0,-448.574 363.6447,-812.219 812.215,-812.219 448.57,0 812.208,363.645 812.208,812.219" /><path
             id="path98"
             style="fill:#595d74;fill-opacity:1;fill-rule:nonzero;stroke:none"
             d="m 536.082,1422.16 h 803.478 c 0,443.75 -359.728,803.48 -803.478,803.48 -443.75,0 -803.484,-359.73 -803.484,-803.48 0,-443.754 359.734,-803.484 803.484,-803.484 443.75,0 803.478,359.73 803.478,803.484" /><path
             id="path100"
             style="fill:#595d76;fill-opacity:1;fill-rule:nonzero;stroke:none"
             d="m 536.082,1422.16 h 794.748 c 0,438.92 -355.822,794.74 -794.748,794.74 -438.9257,0 -794.75,-355.82 -794.75,-794.74 0,-438.93 355.8243,-794.75 794.75,-794.75 438.926,0 794.748,355.82 794.748,794.75" /><path
             id="path102"
             style="fill:#595e78;fill-opacity:1;fill-rule:nonzero;stroke:none"
             d="m 536.082,1422.16 h 786.008 c 0,434.1 -351.906,786.01 -786.008,786.01 -434.102,0 -786.016,-351.91 -786.016,-786.01 0,-434.105 351.914,-786.019 786.016,-786.019 434.102,0 786.008,351.914 786.008,786.019" /><path
             id="path104"
             style="fill:#595f7a;fill-opacity:1;fill-rule:nonzero;stroke:none"
             d="m 536.082,1422.16 h 777.278 c 0,429.27 -348.001,777.28 -777.278,777.28 -429.277,0 -777.281,-348.01 -777.281,-777.28 0,-429.281 348.004,-777.285 777.281,-777.285 429.277,0 777.278,348.004 777.278,777.285" /><path
             id="path106"
             style="fill:#59607b;fill-opacity:1;fill-rule:nonzero;stroke:none"
             d="m 536.082,1422.16 h 768.548 c 0,424.45 -344.095,768.54 -768.548,768.54 -424.453,0 -768.547,-344.09 -768.547,-768.54 0,-424.457 344.094,-768.551 768.547,-768.551 424.453,0 768.548,344.094 768.548,768.551" /><path
             id="path108"
             style="fill:#59607d;fill-opacity:1;fill-rule:nonzero;stroke:none"
             d="m 536.082,1422.16 h 759.808 c 0,419.63 -340.175,759.81 -759.808,759.81 -419.633,0 -759.816,-340.18 -759.816,-759.81 0,-419.64 340.183,-759.816 759.816,-759.816 419.633,0 759.808,340.176 759.808,759.816" /><path
             id="path110"
             style="fill:#59617f;fill-opacity:1;fill-rule:nonzero;stroke:none"
             d="m 536.082,1422.16 h 751.078 c 0,414.8 -336.269,751.07 -751.078,751.07 -414.809,0 -751.082,-336.27 -751.082,-751.07 0,-414.81 336.273,-751.086 751.082,-751.086 414.809,0 751.078,336.276 751.078,751.086" /><path
             id="path112"
             style="fill:#596180;fill-opacity:1;fill-rule:nonzero;stroke:none"
             d="m 536.082,1422.16 h 742.348 c 0,409.98 -332.364,742.34 -742.348,742.34 -409.984,0 -742.348,-332.36 -742.348,-742.34 0,-409.99 332.364,-742.351 742.348,-742.351 409.984,0 742.348,332.361 742.348,742.351" /><path
             id="path114"
             style="fill:#596282;fill-opacity:1;fill-rule:nonzero;stroke:none"
             d="M 536.082,1422.16 H 1269.7 c 0,405.16 -328.458,733.61 -733.618,733.61 -405.16,0 -733.613,-328.45 -733.613,-733.61 0,-405.16 328.453,-733.617 733.613,-733.617 405.16,0 733.618,328.457 733.618,733.617" /><path
             id="path116"
             style="fill:#596284;fill-opacity:1;fill-rule:nonzero;stroke:none"
             d="m 536.082,1422.16 h 724.878 c 0,400.34 -324.538,724.88 -724.878,724.88 -400.34,0 -724.883,-324.54 -724.883,-724.88 0,-400.34 324.543,-724.883 724.883,-724.883 400.34,0 724.878,324.543 724.878,724.883" /><path
             id="path118"
             style="fill:#586385;fill-opacity:1;fill-rule:nonzero;stroke:none"
             d="m 536.082,1422.16 h 716.148 c 0,395.51 -320.632,716.14 -716.148,716.14 -395.516,0 -716.148,-320.63 -716.148,-716.14 0,-395.52 320.632,-716.148 716.148,-716.148 395.516,0 716.148,320.628 716.148,716.148" /><path
             id="path120"
             style="fill:#586387;fill-opacity:1;fill-rule:nonzero;stroke:none"
             d="m 536.082,1422.16 h 707.408 c 0,390.69 -316.717,707.41 -707.408,707.41 -390.691,0 -707.414,-316.72 -707.414,-707.41 0,-390.7 316.723,-707.418 707.414,-707.418 390.691,0 707.408,316.718 707.408,707.418" /><path
             id="path122"
             style="fill:#586388;fill-opacity:1;fill-rule:nonzero;stroke:none"
             d="m 536.082,1422.16 h 698.678 c 0,385.86 -312.811,698.68 -698.678,698.68 -385.867,0 -698.68,-312.82 -698.68,-698.68 0,-385.87 312.813,-698.683 698.68,-698.683 385.867,0 698.678,312.813 698.678,698.683" /><path
             id="path124"
             style="fill:#57648a;fill-opacity:1;fill-rule:nonzero;stroke:none"
             d="m 536.082,1422.16 h 689.948 c 0,381.04 -308.905,689.94 -689.948,689.94 -381.043,0 -689.945,-308.9 -689.945,-689.94 0,-381.05 308.902,-689.949 689.945,-689.949 381.043,0 689.948,308.899 689.948,689.949" /><path
             id="path126"
             style="fill:#57648b;fill-opacity:1;fill-rule:nonzero;stroke:none"
             d="m 536.082,1422.16 h 681.208 c 0,376.22 -304.985,681.21 -681.208,681.21 -376.223,0 -681.215,-304.99 -681.215,-681.21 0,-376.23 304.992,-681.215 681.215,-681.215 376.223,0 681.208,304.985 681.208,681.215" /><path
             id="path128"
             style="fill:#56648d;fill-opacity:1;fill-rule:nonzero;stroke:none"
             d="m 536.082,1422.16 h 672.478 c 0,371.39 -301.08,672.47 -672.478,672.47 -371.398,0 -672.48,-301.08 -672.48,-672.47 0,-371.4 301.082,-672.484 672.48,-672.484 371.398,0 672.478,301.084 672.478,672.484" /><path
             id="path130"
             style="fill:#55658e;fill-opacity:1;fill-rule:nonzero;stroke:none"
             d="m 536.082,1422.16 h 663.738 c 0,366.57 -297.164,663.74 -663.738,663.74 -366.574,0 -663.746,-297.17 -663.746,-663.74 0,-366.58 297.172,-663.75 663.746,-663.75 366.574,0 663.738,297.17 663.738,663.75" /><path
             id="path132"
             style="fill:#556590;fill-opacity:1;fill-rule:nonzero;stroke:none"
             d="m 536.082,1422.16 h 655.008 c 0,361.75 -293.258,655.01 -655.008,655.01 -361.75,0 -655.012,-293.26 -655.012,-655.01 0,-361.75 293.262,-655.015 655.012,-655.015 361.75,0 655.008,293.265 655.008,655.015" /><path
             id="path134"
             style="fill:#546591;fill-opacity:1;fill-rule:nonzero;stroke:none"
             d="m 536.082,1422.16 h 646.278 c 0,356.92 -289.352,646.27 -646.278,646.27 -356.926,0 -646.281,-289.35 -646.281,-646.27 0,-356.93 289.355,-646.281 646.281,-646.281 356.926,0 646.278,289.351 646.278,646.281" /><path
             id="path136"
             style="fill:#536593;fill-opacity:1;fill-rule:nonzero;stroke:none"
             d="m 536.082,1422.16 h 637.548 c 0,352.1 -285.442,637.54 -637.548,637.54 -352.105,0 -637.547,-285.44 -637.547,-637.54 0,-352.11 285.442,-637.551 637.547,-637.551 352.106,0 637.548,285.441 637.548,637.551" /><path
             id="path138"
             style="fill:#526694;fill-opacity:1;fill-rule:nonzero;stroke:none"
             d="m 536.082,1422.16 h 628.808 c 0,347.28 -281.527,628.81 -628.808,628.81 -347.281,0 -628.8125,-281.53 -628.8125,-628.81 0,-347.28 281.5315,-628.816 628.8125,-628.816 347.281,0 628.808,281.536 628.808,628.816" /><path
             id="path140"
             style="fill:#516695;fill-opacity:1;fill-rule:nonzero;stroke:none"
             d="m 536.082,1422.16 h 620.078 c 0,342.45 -277.621,620.07 -620.078,620.07 -342.457,0 -620.0781,-277.62 -620.0781,-620.07 0,-342.46 277.6211,-620.082 620.0781,-620.082 342.457,0 620.078,277.622 620.078,620.082" /><path
             id="path142"
             style="fill:#516697;fill-opacity:1;fill-rule:nonzero;stroke:none"
             d="m 536.082,1422.16 h 611.348 c 0,337.63 -273.715,611.34 -611.348,611.34 -337.633,0 -611.3476,-273.71 -611.3476,-611.34 0,-337.64 273.7146,-611.347 611.3476,-611.347 337.633,0 611.348,273.707 611.348,611.347" /><path
             id="path144"
             style="fill:#506698;fill-opacity:1;fill-rule:nonzero;stroke:none"
             d="m 536.082,1422.16 h 602.608 c 0,332.81 -269.795,602.61 -602.608,602.61 -332.812,0 -602.6133,-269.8 -602.6133,-602.61 0,-332.82 269.8013,-602.613 602.6133,-602.613 332.813,0 602.608,269.793 602.608,602.613" /><path
             id="path146"
             style="fill:#4e6699;fill-opacity:1;fill-rule:nonzero;stroke:none"
             d="m 536.082,1422.16 h 593.878 c 0,327.98 -265.89,593.87 -593.878,593.87 -327.988,0 -593.8789,-265.89 -593.8789,-593.87 0,-327.99 265.8909,-593.883 593.8789,-593.883 327.988,0 593.878,265.893 593.878,593.883" /><path
             id="path148"
             style="fill:#4d669b;fill-opacity:1;fill-rule:nonzero;stroke:none"
             d="m 536.082,1422.16 h 585.138 c 0,323.16 -261.974,585.14 -585.138,585.14 -323.164,0 -585.1445,-261.98 -585.1445,-585.14 0,-323.17 261.9805,-585.148 585.1445,-585.148 323.164,0 585.138,261.978 585.138,585.148" /><path
             id="path150"
             style="fill:#4c679c;fill-opacity:1;fill-rule:nonzero;stroke:none"
             d="m 536.082,1422.16 h 576.408 c 0,318.34 -258.068,576.41 -576.408,576.41 -318.34,0 -576.4101,-258.07 -576.4101,-576.41 0,-318.34 258.0701,-576.414 576.4101,-576.414 318.34,0 576.408,258.074 576.408,576.414" /><path
             id="path152"
             style="fill:#4b669d;fill-opacity:1;fill-rule:nonzero;stroke:none"
             d="m 536.082,1422.16 h 567.678 c 0,313.51 -254.162,567.67 -567.678,567.67 -313.516,0 -567.6797,-254.16 -567.6797,-567.67 0,-313.52 254.1637,-567.68 567.6797,-567.68 313.516,0 567.678,254.16 567.678,567.68" /><path
             id="path154"
             style="fill:#4b669d;fill-opacity:1;fill-rule:nonzero;stroke:none"
             d="m 536.082,1422.16 h 558.938 c 0,308.69 -250.243,558.94 -558.938,558.94 -308.695,0 -558.9453,-250.25 -558.9453,-558.94 0,-308.7 250.2503,-558.949 558.9453,-558.949 308.695,0 558.938,250.249 558.938,558.949" /><path
             id="path156"
             style="fill:#4d689e;fill-opacity:1;fill-rule:nonzero;stroke:none"
             d="m 536.082,1422.16 h 550.208 c 0,303.87 -246.337,550.21 -550.208,550.21 -303.871,0 -550.2109,-246.34 -550.2109,-550.21 0,-303.87 246.3399,-550.215 550.2109,-550.215 303.871,0 550.208,246.345 550.208,550.215" /><path
             id="path158"
             style="fill:#506aa0;fill-opacity:1;fill-rule:nonzero;stroke:none"
             d="m 536.082,1422.16 h 541.478 c 0,299.04 -242.431,541.47 -541.478,541.47 -299.047,0 -541.48044,-242.43 -541.48044,-541.47 0,-299.05 242.43344,-541.48 541.48044,-541.48 299.047,0 541.478,242.43 541.478,541.48" /><path
             id="path160"
             style="fill:#526ba1;fill-opacity:1;fill-rule:nonzero;stroke:none"
             d="m 536.082,1422.16 h 532.738 c 0,294.22 -238.515,532.74 -532.738,532.74 -294.223,0 -532.74606,-238.52 -532.74606,-532.74 0,-294.23 238.52306,-532.746 532.74606,-532.746 294.223,0 532.738,238.516 532.738,532.746" /><path
             id="path162"
             style="fill:#556da2;fill-opacity:1;fill-rule:nonzero;stroke:none"
             d="m 536.082,1422.16 h 524.008 c 0,289.4 -234.606,524 -524.008,524 -289.402,0 -524.0117,-234.6 -524.0117,-524 0,-289.41 234.6097,-524.015 524.0117,-524.015 289.402,0 524.008,234.605 524.008,524.015" /><path
             id="path164"
             style="fill:#576ea3;fill-opacity:1;fill-rule:nonzero;stroke:none"
             d="m 536.082,1422.16 h 515.278 c 0,284.57 -230.7,515.27 -515.278,515.27 -284.578,0 -515.2773,-230.7 -515.2773,-515.27 0,-284.58 230.6993,-515.281 515.2773,-515.281 284.578,0 515.278,230.701 515.278,515.281" /><path
             id="path166"
             style="fill:#5970a4;fill-opacity:1;fill-rule:nonzero;stroke:none"
             d="m 536.082,1422.16 h 506.548 c 0,279.75 -226.794,506.54 -506.548,506.54 -279.754,0 -506.5429,-226.79 -506.5429,-506.54 0,-279.76 226.7889,-506.547 506.5429,-506.547 279.754,0 506.548,226.787 506.548,506.547" /><path
             id="path168"
             style="fill:#5c72a5;fill-opacity:1;fill-rule:nonzero;stroke:none"
             d="m 536.082,1422.16 h 497.808 c 0,274.93 -222.878,497.8 -497.808,497.8 -274.93,0 -497.8125,-222.87 -497.8125,-497.8 0,-274.93 222.8825,-497.812 497.8125,-497.812 274.93,0 497.808,222.882 497.808,497.812" /><path
             id="path170"
             style="fill:#5e73a7;fill-opacity:1;fill-rule:nonzero;stroke:none"
             d="m 536.082,1422.16 h 489.078 c 0,270.1 -218.972,489.07 -489.078,489.07 -270.105,0 -489.0781,-218.97 -489.0781,-489.07 0,-270.11 218.9731,-489.082 489.0781,-489.082 270.106,0 489.078,218.972 489.078,489.082" /><path
             id="path172"
             style="fill:#6075a8;fill-opacity:1;fill-rule:nonzero;stroke:none"
             d="m 536.082,1422.16 h 480.338 c 0,265.28 -215.053,480.34 -480.338,480.34 -265.285,0 -480.3437,-215.06 -480.3437,-480.34 0,-265.29 215.0587,-480.347 480.3437,-480.347 265.285,0 480.338,215.057 480.338,480.347" /><path
             id="path174"
             style="fill:#6377a9;fill-opacity:1;fill-rule:nonzero;stroke:none"
             d="m 536.082,1422.16 h 471.608 c 0,260.46 -211.147,471.61 -471.608,471.61 -260.461,0 -471.6093,-211.15 -471.6093,-471.61 0,-260.46 211.1483,-471.613 471.6093,-471.613 260.461,0 471.608,211.153 471.608,471.613" /><path
             id="path176"
             style="fill:#6679aa;fill-opacity:1;fill-rule:nonzero;stroke:none"
             d="m 536.082,1422.16 h 462.875 c 0,255.63 -207.238,462.87 -462.875,462.87 -255.637,0 -462.8789,-207.24 -462.8789,-462.87 0,-255.64 207.2419,-462.879 462.8789,-462.879 255.637,0 462.875,207.239 462.875,462.879" /><path
             id="path178"
             style="fill:#687aab;fill-opacity:1;fill-rule:nonzero;stroke:none"
             d="m 536.082,1422.16 h 454.141 c 0,250.81 -203.328,454.14 -454.141,454.14 -250.812,0 -454.1445,-203.33 -454.1445,-454.14 0,-250.82 203.3325,-454.148 454.1445,-454.148 250.813,0 454.141,203.328 454.141,454.148" /><path
             id="path180"
             style="fill:#6a7cad;fill-opacity:1;fill-rule:nonzero;stroke:none"
             d="m 536.082,1422.16 h 445.406 c 0,245.99 -199.414,445.41 -445.406,445.41 -245.992,0 -445.4101,-199.42 -445.4101,-445.41 0,-246 199.4181,-445.414 445.4101,-445.414 245.992,0 445.406,199.414 445.406,445.414" /><path
             id="path182"
             style="fill:#6d7eae;fill-opacity:1;fill-rule:nonzero;stroke:none"
             d="m 536.082,1422.16 h 436.672 c 0,241.16 -195.504,436.67 -436.672,436.67 -241.168,0 -436.6757,-195.51 -436.6757,-436.67 0,-241.17 195.5077,-436.68 436.6757,-436.68 241.168,0 436.672,195.51 436.672,436.68" /><path
             id="path184"
             style="fill:#7080af;fill-opacity:1;fill-rule:nonzero;stroke:none"
             d="m 536.082,1422.16 h 427.941 c 0,236.34 -191.597,427.94 -427.941,427.94 -236.344,0 -427.941,-191.6 -427.941,-427.94 0,-236.35 191.597,-427.945 427.941,-427.945 236.344,0 427.941,191.595 427.941,427.945" /><path
             id="path186"
             style="fill:#7282b1;fill-opacity:1;fill-rule:nonzero;stroke:none"
             d="m 536.082,1422.16 h 419.207 c 0,231.52 -187.687,419.2 -419.207,419.2 -231.519,0 -419.211,-187.68 -419.211,-419.2 0,-231.52 187.692,-419.21 419.211,-419.21 231.52,0 419.207,187.69 419.207,419.21" /><path
             id="path188"
             style="fill:#7584b2;fill-opacity:1;fill-rule:nonzero;stroke:none"
             d="m 536.082,1422.16 h 410.473 c 0,226.69 -183.778,410.47 -410.473,410.47 -226.695,0 -410.477,-183.78 -410.477,-410.47 0,-226.7 183.782,-410.48 410.477,-410.48 226.695,0 410.473,183.78 410.473,410.48" /><path
             id="path190"
             style="fill:#7786b3;fill-opacity:1;fill-rule:nonzero;stroke:none"
             d="M 536.082,1422.16 H 937.82 c 0,221.87 -179.863,401.74 -401.738,401.74 -221.875,0 -401.742,-179.87 -401.742,-401.74 0,-221.88 179.867,-401.75 401.742,-401.75 221.875,0 401.738,179.87 401.738,401.75" /><path
             id="path192"
             style="fill:#7a88b5;fill-opacity:1;fill-rule:nonzero;stroke:none"
             d="M 536.082,1422.16 H 929.09 c 0,217.05 -175.957,393 -393.008,393 -217.051,0 -393.008,-175.95 -393.008,-393 0,-217.05 175.957,-393.01 393.008,-393.01 217.051,0 393.008,175.96 393.008,393.01" /><path
             id="path194"
             style="fill:#7c8ab6;fill-opacity:1;fill-rule:nonzero;stroke:none"
             d="m 536.082,1422.16 h 384.273 c 0,212.22 -172.046,384.27 -384.273,384.27 -212.227,0 -384.277,-172.05 -384.277,-384.27 0,-212.23 172.05,-384.28 384.277,-384.28 212.227,0 384.273,172.05 384.273,384.28" /><path
             id="path196"
             style="fill:#7f8cb7;fill-opacity:1;fill-rule:nonzero;stroke:none"
             d="m 536.082,1422.16 h 375.539 c 0,207.4 -168.137,375.54 -375.539,375.54 -207.402,0 -375.543,-168.14 -375.543,-375.54 0,-207.41 168.141,-375.55 375.543,-375.55 207.402,0 375.539,168.14 375.539,375.55" /><path
             id="path198"
             style="fill:#828eb9;fill-opacity:1;fill-rule:nonzero;stroke:none"
             d="m 536.082,1422.16 h 366.805 c 0,202.57 -164.227,366.8 -366.805,366.8 -202.578,0 -366.809,-164.23 -366.809,-366.8 0,-202.58 164.231,-366.81 366.809,-366.81 202.578,0 366.805,164.23 366.805,366.81" /><path
             id="path200"
             style="fill:#8590ba;fill-opacity:1;fill-rule:nonzero;stroke:none"
             d="m 536.082,1422.16 h 358.07 c 0,197.75 -160.312,358.07 -358.07,358.07 -197.758,0 -358.074,-160.32 -358.074,-358.07 0,-197.76 160.316,-358.08 358.074,-358.08 197.758,0 358.07,160.32 358.07,358.08" /><path
             id="path202"
             style="fill:#8792bb;fill-opacity:1;fill-rule:nonzero;stroke:none"
             d="m 536.082,1422.16 h 349.34 c 0,192.93 -156.406,349.34 -349.34,349.34 -192.934,0 -349.344,-156.41 -349.344,-349.34 0,-192.94 156.41,-349.34 349.344,-349.34 192.934,0 349.34,156.4 349.34,349.34" /><path
             id="path204"
             style="fill:#8a94bd;fill-opacity:1;fill-rule:nonzero;stroke:none"
             d="m 536.082,1422.16 h 340.606 c 0,188.11 -152.497,340.6 -340.606,340.6 -188.109,0 -340.609,-152.49 -340.609,-340.6 0,-188.11 152.5,-340.61 340.609,-340.61 188.109,0 340.606,152.5 340.606,340.61" /><path
             id="path206"
             style="fill:#8d97be;fill-opacity:1;fill-rule:nonzero;stroke:none"
             d="m 536.082,1422.16 h 331.871 c 0,183.28 -148.586,331.87 -331.871,331.87 -183.285,0 -331.875,-148.59 -331.875,-331.87 0,-183.29 148.59,-331.88 331.875,-331.88 183.285,0 331.871,148.59 331.871,331.88" /><path
             id="path208"
             style="fill:#9099c0;fill-opacity:1;fill-rule:nonzero;stroke:none"
             d="m 536.082,1422.16 h 323.137 c 0,178.46 -144.672,323.14 -323.137,323.14 -178.465,0 -323.141,-144.68 -323.141,-323.14 0,-178.47 144.676,-323.14 323.141,-323.14 178.465,0 323.137,144.67 323.137,323.14" /><path
             id="path210"
             style="fill:#929bc1;fill-opacity:1;fill-rule:nonzero;stroke:none"
             d="m 536.082,1422.16 h 314.406 c 0,173.64 -140.765,314.4 -314.406,314.4 -173.641,0 -314.406,-140.76 -314.406,-314.4 0,-173.64 140.765,-314.41 314.406,-314.41 173.641,0 314.406,140.77 314.406,314.41" /><path
             id="path212"
             style="fill:#959ec3;fill-opacity:1;fill-rule:nonzero;stroke:none"
             d="m 536.082,1422.16 h 305.672 c 0,168.81 -136.856,305.67 -305.672,305.67 -168.816,0 -305.676,-136.86 -305.676,-305.67 0,-168.82 136.86,-305.68 305.676,-305.68 168.816,0 305.672,136.86 305.672,305.68" /><path
             id="path214"
             style="fill:#98a0c4;fill-opacity:1;fill-rule:nonzero;stroke:none"
             d="M 536.082,1422.16 H 833.02 c 0,163.99 -132.946,296.93 -296.938,296.93 -163.992,0 -296.941,-132.94 -296.941,-296.93 0,-164 132.949,-296.95 296.941,-296.95 163.992,0 296.938,132.95 296.938,296.95" /><path
             id="path216"
             style="fill:#9ba2c6;fill-opacity:1;fill-rule:nonzero;stroke:none"
             d="m 536.082,1422.16 h 288.203 c 0,159.16 -129.035,288.2 -288.203,288.2 -159.168,0 -288.207,-129.04 -288.207,-288.2 0,-159.17 129.039,-288.21 288.207,-288.21 159.168,0 288.203,129.04 288.203,288.21" /><path
             id="path218"
             style="fill:#9ea5c7;fill-opacity:1;fill-rule:nonzero;stroke:none"
             d="m 536.082,1422.16 h 279.469 c 0,154.34 -125.121,279.47 -279.469,279.47 -154.348,0 -279.473,-125.13 -279.473,-279.47 0,-154.35 125.125,-279.48 279.473,-279.48 154.348,0 279.469,125.13 279.469,279.48" /><path
             id="path220"
             style="fill:#a1a7c9;fill-opacity:1;fill-rule:nonzero;stroke:none"
             d="M 536.082,1422.16 H 806.82 c 0,149.52 -121.215,270.73 -270.738,270.73 -149.523,0 -270.742,-121.21 -270.742,-270.73 0,-149.53 121.219,-270.74 270.742,-270.74 149.523,0 270.738,121.21 270.738,270.74" /><path
             id="path222"
             style="fill:#a3aaca;fill-opacity:1;fill-rule:nonzero;stroke:none"
             d="m 536.082,1422.16 h 262.004 c 0,144.7 -117.305,262 -262.004,262 -144.699,0 -262.008,-117.3 -262.008,-262 0,-144.7 117.309,-262.01 262.008,-262.01 144.699,0 262.004,117.31 262.004,262.01" /><path
             id="path224"
             style="fill:#a6accc;fill-opacity:1;fill-rule:nonzero;stroke:none"
             d="m 536.082,1422.16 h 253.27 c 0,139.87 -113.395,253.27 -253.27,253.27 -139.875,0 -253.273,-113.4 -253.273,-253.27 0,-139.88 113.398,-253.28 253.273,-253.28 139.875,0 253.27,113.4 253.27,253.28" /><path
             id="path226"
             style="fill:#a9afcd;fill-opacity:1;fill-rule:nonzero;stroke:none"
             d="m 536.082,1422.16 h 244.535 c 0,135.05 -109.48,244.54 -244.535,244.54 -135.055,0 -244.539,-109.49 -244.539,-244.54 0,-135.06 109.484,-244.54 244.539,-244.54 135.055,0 244.535,109.48 244.535,244.54" /><path
             id="path228"
             style="fill:#acb1cf;fill-opacity:1;fill-rule:nonzero;stroke:none"
             d="m 536.082,1422.16 h 235.805 c 0,130.23 -105.574,235.8 -235.805,235.8 -130.23,0 -235.805,-105.57 -235.805,-235.8 0,-130.23 105.575,-235.81 235.805,-235.81 130.231,0 235.805,105.58 235.805,235.81" /><path
             id="path230"
             style="fill:#afb4d1;fill-opacity:1;fill-rule:nonzero;stroke:none"
             d="m 536.082,1422.16 h 227.07 c 0,125.4 -101.664,227.07 -227.07,227.07 -125.406,0 -227.074,-101.67 -227.074,-227.07 0,-125.41 101.668,-227.07 227.074,-227.07 125.406,0 227.07,101.66 227.07,227.07" /><path
             id="path232"
             style="fill:#b2b6d2;fill-opacity:1;fill-rule:nonzero;stroke:none"
             d="m 536.082,1422.16 h 218.336 c 0,120.58 -97.754,218.33 -218.336,218.33 -120.582,0 -218.34,-97.75 -218.34,-218.33 0,-120.59 97.758,-218.34 218.34,-218.34 120.582,0 218.336,97.75 218.336,218.34" /><path
             id="path234"
             style="fill:#b5b9d4;fill-opacity:1;fill-rule:nonzero;stroke:none"
             d="m 536.082,1422.16 h 209.602 c 0,115.75 -93.844,209.6 -209.602,209.6 -115.758,0 -209.605,-93.85 -209.605,-209.6 0,-115.76 93.847,-209.61 209.605,-209.61 115.758,0 209.602,93.85 209.602,209.61" /><path
             id="path236"
             style="fill:#b8bcd6;fill-opacity:1;fill-rule:nonzero;stroke:none"
             d="m 536.082,1422.16 h 200.867 c 0,110.93 -89.929,200.87 -200.867,200.87 -110.937,0 -200.871,-89.94 -200.871,-200.87 0,-110.94 89.934,-200.87 200.871,-200.87 110.938,0 200.867,89.93 200.867,200.87" /><path
             id="path238"
             style="fill:#bbbed7;fill-opacity:1;fill-rule:nonzero;stroke:none"
             d="m 536.082,1422.16 h 192.137 c 0,106.11 -86.024,192.13 -192.137,192.13 -106.113,0 -192.141,-86.02 -192.141,-192.13 0,-106.12 86.028,-192.14 192.141,-192.14 106.113,0 192.137,86.02 192.137,192.14" /><path
             id="path240"
             style="fill:#bec1d9;fill-opacity:1;fill-rule:nonzero;stroke:none"
             d="m 536.082,1422.16 h 183.402 c 0,101.29 -82.113,183.4 -183.402,183.4 -101.289,0 -183.406,-82.11 -183.406,-183.4 0,-101.29 82.117,-183.41 183.406,-183.41 101.289,0 183.402,82.12 183.402,183.41" /><path
             id="path242"
             style="fill:#c1c4db;fill-opacity:1;fill-rule:nonzero;stroke:none"
             d="M 536.082,1422.16 H 710.75 c 0,96.46 -78.203,174.66 -174.668,174.66 -96.465,0 -174.672,-78.2 -174.672,-174.66 0,-96.47 78.207,-174.68 174.672,-174.68 96.465,0 174.668,78.21 174.668,174.68" /><path
             id="path244"
             style="fill:#c4c7dc;fill-opacity:1;fill-rule:nonzero;stroke:none"
             d="m 536.082,1422.16 h 165.934 c 0,91.64 -74.293,165.93 -165.934,165.93 -91.641,0 -165.937,-74.29 -165.937,-165.93 0,-91.64 74.296,-165.94 165.937,-165.94 91.641,0 165.934,74.3 165.934,165.94" /><path
             id="path246"
             style="fill:#c8cade;fill-opacity:1;fill-rule:nonzero;stroke:none"
             d="m 536.082,1422.16 h 157.203 c 0,86.82 -70.383,157.2 -157.203,157.2 -86.82,0 -157.203,-70.38 -157.203,-157.2 0,-86.82 70.383,-157.21 157.203,-157.21 86.82,0 157.203,70.39 157.203,157.21" /><path
             id="path248"
             style="fill:#cbcce0;fill-opacity:1;fill-rule:nonzero;stroke:none"
             d="m 536.082,1422.16 h 148.469 c 0,81.99 -66.473,148.47 -148.469,148.47 -81.996,0 -148.473,-66.48 -148.473,-148.47 0,-82 66.477,-148.47 148.473,-148.47 81.996,0 148.469,66.47 148.469,148.47" /><path
             id="path250"
             style="fill:#cecfe2;fill-opacity:1;fill-rule:nonzero;stroke:none"
             d="m 536.082,1422.16 h 139.734 c 0,77.17 -62.562,139.73 -139.734,139.73 -77.172,0 -139.738,-62.56 -139.738,-139.73 0,-77.18 62.566,-139.74 139.738,-139.74 77.172,0 139.734,62.56 139.734,139.74" /><path
             id="path252"
             style="fill:#d1d2e4;fill-opacity:1;fill-rule:nonzero;stroke:none"
             d="m 536.082,1422.16 h 131 c 0,72.34 -58.652,131 -131,131 -72.348,0 -131.004,-58.66 -131.004,-131 0,-72.35 58.656,-131.01 131.004,-131.01 72.348,0 131,58.66 131,131.01" /><path
             id="path254"
             style="fill:#d4d5e5;fill-opacity:1;fill-rule:nonzero;stroke:none"
             d="m 536.082,1422.16 h 122.266 c 0,67.52 -54.739,122.27 -122.266,122.27 -67.527,0 -122.269,-54.75 -122.269,-122.27 0,-67.53 54.742,-122.27 122.269,-122.27 67.527,0 122.266,54.74 122.266,122.27" /><path
             id="path256"
             style="fill:#d7d8e7;fill-opacity:1;fill-rule:nonzero;stroke:none"
             d="m 536.082,1422.16 h 113.535 c 0,62.7 -50.832,113.53 -113.535,113.53 -62.703,0 -113.539,-50.83 -113.539,-113.53 0,-62.71 50.836,-113.54 113.539,-113.54 62.703,0 113.535,50.83 113.535,113.54" /><path
             id="path258"
             style="fill:#dadbe9;fill-opacity:1;fill-rule:nonzero;stroke:none"
             d="m 536.082,1422.16 h 104.801 c 0,57.88 -46.922,104.8 -104.801,104.8 -57.879,0 -104.805,-46.92 -104.805,-104.8 0,-57.88 46.926,-104.8 104.805,-104.8 57.879,0 104.801,46.92 104.801,104.8" /><path
             id="path260"
             style="fill:#dedeeb;fill-opacity:1;fill-rule:nonzero;stroke:none"
             d="m 536.082,1422.16 h 96.066 c 0,53.05 -43.011,96.06 -96.066,96.06 -53.055,0 -96.07,-43.01 -96.07,-96.06 0,-53.06 43.015,-96.07 96.07,-96.07 53.055,0 96.066,43.01 96.066,96.07" /><path
             id="path262"
             style="fill:#e1e1ed;fill-opacity:1;fill-rule:nonzero;stroke:none"
             d="m 536.082,1422.16 h 87.332 c 0,48.23 -39.101,87.33 -87.332,87.33 -48.23,0 -87.336,-39.1 -87.336,-87.33 0,-48.23 39.106,-87.34 87.336,-87.34 48.231,0 87.332,39.11 87.332,87.34" /><path
             id="path264"
             style="fill:#e4e5ef;fill-opacity:1;fill-rule:nonzero;stroke:none"
             d="m 536.082,1422.16 h 78.602 c 0,43.41 -35.192,78.6 -78.602,78.6 -43.41,0 -78.602,-35.19 -78.602,-78.6 0,-43.41 35.192,-78.61 78.602,-78.61 43.41,0 78.602,35.2 78.602,78.61" /><path
             id="path266"
             style="fill:#e8e8f1;fill-opacity:1;fill-rule:nonzero;stroke:none"
             d="m 536.082,1422.16 h 69.867 c 0,38.58 -31.281,69.86 -69.867,69.86 -38.586,0 -69.871,-31.28 -69.871,-69.86 0,-38.59 31.285,-69.87 69.871,-69.87 38.586,0 69.867,31.28 69.867,69.87" /><path
             id="path268"
             style="fill:#ebebf3;fill-opacity:1;fill-rule:nonzero;stroke:none"
             d="m 536.082,1422.16 h 61.133 c 0,33.76 -27.371,61.13 -61.133,61.13 -33.762,0 -61.137,-27.37 -61.137,-61.13 0,-33.77 27.375,-61.14 61.137,-61.14 33.762,0 61.133,27.37 61.133,61.14" /><path
             id="path270"
             style="fill:#eeeef5;fill-opacity:1;fill-rule:nonzero;stroke:none"
             d="m 536.082,1422.16 h 52.398 c 0,28.93 -23.46,52.4 -52.398,52.4 -28.937,0 -52.402,-23.47 -52.402,-52.4 0,-28.94 23.465,-52.41 52.402,-52.41 28.938,0 52.398,23.47 52.398,52.41" /><path
             id="path272"
             style="fill:#f1f2f7;fill-opacity:1;fill-rule:nonzero;stroke:none"
             d="m 536.082,1422.16 h 43.668 c 0,24.11 -19.555,43.66 -43.668,43.66 -24.113,0 -43.668,-19.55 -43.668,-43.66 0,-24.12 19.555,-43.67 43.668,-43.67 24.113,0 43.668,19.55 43.668,43.67" /><path
             id="path274"
             style="fill:#f5f5f9;fill-opacity:1;fill-rule:nonzero;stroke:none"
             d="m 536.082,1422.16 h 34.934 c 0,19.29 -15.641,34.93 -34.934,34.93 -19.293,0 -34.937,-15.64 -34.937,-34.93 0,-19.3 15.644,-34.94 34.937,-34.94 19.293,0 34.934,15.64 34.934,34.94" /><path
             id="path276"
             style="fill:#f8f8fb;fill-opacity:1;fill-rule:nonzero;stroke:none"
             d="m 536.082,1422.16 h 26.199 c 0,14.47 -11.73,26.2 -26.199,26.2 -14.469,0 -26.203,-11.73 -26.203,-26.2 0,-14.47 11.734,-26.2 26.203,-26.2 14.469,0 26.199,11.73 26.199,26.2" /><path
             id="path278"
             style="fill:#fcfcfd;fill-opacity:1;fill-rule:nonzero;stroke:none"
             d="m 536.082,1422.16 h 17.465 c 0,9.64 -7.82,17.46 -17.465,17.46 -9.644,0 -17.469,-7.82 -17.469,-17.46 0,-9.65 7.825,-17.47 17.469,-17.47 9.645,0 17.465,7.82 17.465,17.47" /><path
             id="path280"
             style="fill:#ffffff;fill-opacity:1;fill-rule:nonzero;stroke:none"
             d="m 536.082,1422.16 h 8.731 c 0,4.82 -3.911,8.73 -8.731,8.73 -4.82,0 -8.734,-3.91 -8.734,-8.73 0,-4.82 3.914,-8.74 8.734,-8.74 4.82,0 8.731,3.92 8.731,8.74" /></g></g><path
         id="path282"
         style="fill:#647dc0;fill-opacity:1;fill-rule:evenodd;stroke:none"
         d="m 966.379,550.355 c 456.721,0 826.971,187.641 826.971,419.094 0,231.451 -370.25,419.091 -826.971,419.091 -456.723,0 -826.977,-187.64 -826.977,-419.091 0,-231.453 370.254,-419.094 826.977,-419.094" /><path
         id="path284"
         style="fill:#ffffff;fill-opacity:1;fill-rule:evenodd;stroke:none"
         d="m 1133.9,833.992 41.02,211.118 c 9.26,47.65 1.56,83.2 -22.88,105.65 -23.66,21.74 -63.84,32.31 -122.83,32.31 h -71.034 l 20.328,104.59 c 0.762,3.95 -0.27,8.03 -2.82,11.13 -2.563,3.1 -6.364,4.89 -10.379,4.89 h -98.047 c -6.442,0 -11.973,-4.56 -13.207,-10.88 l -43.559,-224.14 c -3.961,25.23 -13.722,46.91 -29.34,64.79 -28.761,32.92 -74.25,49.62 -135.218,49.62 H 455.891 c -6.438,0 -11.973,-4.57 -13.2,-10.89 L 354.516,718.504 c -0.77,-3.938 0.265,-8.016 2.82,-11.113 2.559,-3.102 6.355,-4.895 10.379,-4.895 h 98.824 c 6.434,0 11.973,4.563 13.203,10.883 l 21.324,109.73 h 73.571 c 38.605,0 71.031,4.192 96.355,12.434 25.891,8.418 49.719,22.695 70.723,42.359 16.969,15.59 30.992,33.047 41.781,51.879 l -17.613,-90.656 c -0.77,-3.937 0.265,-8.02 2.82,-11.117 2.555,-3.098 6.36,-4.899 10.375,-4.899 h 98.051 c 6.437,0 11.973,4.567 13.199,10.883 l 48.391,249.028 H 1006 c 28.67,0 37.06,-5.71 39.34,-8.16 2.08,-2.24 6.39,-10.13 1.55,-35 l -39,-200.735 c -0.77,-3.949 0.27,-8.02 2.82,-11.117 2.56,-3.098 6.36,-4.899 10.38,-4.899 h 99.61 c 6.43,0 11.97,4.567 13.2,10.883 z M 679.328,1008.43 c -6.16,-31.649 -17.765,-54.219 -34.496,-67.102 -17,-13.09 -44.195,-19.734 -80.824,-19.734 h -43.805 l 31.68,162.976 h 56.625 c 41.601,0 58.363,-8.89 65.097,-16.34 9.325,-10.34 11.301,-31.03 5.723,-59.8" /><path
         id="path286"
         style="fill:#ffffff;fill-opacity:1;fill-rule:evenodd;stroke:none"
         d="m 1546.92,1133.45 c -28.76,32.92 -74.25,49.62 -135.22,49.62 h -190.04 c -6.44,0 -11.97,-4.57 -13.2,-10.89 l -88.17,-453.676 c -0.77,-3.938 0.26,-8.016 2.82,-11.113 2.55,-3.102 6.35,-4.895 10.37,-4.895 h 98.83 c 6.44,0 11.98,4.563 13.21,10.883 l 21.32,109.73 h 73.56 c 38.62,0 71.03,4.192 96.36,12.434 25.89,8.418 49.72,22.695 70.73,42.359 17.51,16.102 31.93,34.168 42.85,53.711 10.91,19.52 18.75,41.301 23.3,64.746 11.24,57.811 2.25,103.931 -26.72,137.091 z m -96.22,-125.02 c -6.16,-31.649 -17.77,-54.219 -34.5,-67.102 -17,-13.09 -44.19,-19.734 -80.82,-19.734 h -43.8 l 31.67,162.976 h 56.63 c 41.6,0 58.36,-8.89 65.1,-16.34 9.32,-10.34 11.31,-31.03 5.72,-59.8" /><path
         id="path288"
         style="fill:#231f20;fill-opacity:1;fill-rule:evenodd;stroke:none"
         d="m 608.508,1098.02 c 37.547,0 62.574,-6.93 75.082,-20.79 12.5,-13.86 15.476,-37.66 8.937,-71.37 -6.836,-35.114 -19.992,-60.172 -39.496,-75.192 -19.5,-15.02 -49.179,-22.52 -89.023,-22.52 h -60.117 l 36.906,189.872 z M 367.715,715.938 h 98.824 l 23.445,120.621 h 84.653 c 37.351,0 68.074,3.918 92.195,11.777 24.125,7.836 46.051,20.992 65.781,39.465 16.559,15.219 29.961,32.012 40.223,50.371 10.25,18.351 17.531,38.605 21.836,60.754 10.457,53.784 2.57,95.674 -23.649,125.674 -26.214,30.01 -67.921,45.01 -125.089,45.01 H 455.891 L 367.715,715.938" /><path
         id="path290"
         style="fill:#231f20;fill-opacity:1;fill-rule:evenodd;stroke:none"
         d="m 867.258,1290.23 h 98.047 l -23.446,-120.62 h 87.351 c 54.96,0 92.87,-9.59 113.74,-28.75 20.86,-19.17 27.11,-50.24 18.77,-93.19 L 1120.7,836.559 h -99.61 l 39,200.731 c 4.45,22.84 2.81,38.41 -4.9,46.72 -7.71,8.3 -24.11,12.45 -49.19,12.45 H 927.637 L 877.129,836.559 h -98.051 l 88.18,453.671" /><path
         id="path292"
         style="fill:#231f20;fill-opacity:1;fill-rule:evenodd;stroke:none"
         d="m 1379.88,1098.02 c 37.55,0 62.57,-6.93 75.08,-20.79 12.5,-13.86 15.48,-37.66 8.93,-71.37 -6.83,-35.114 -19.98,-60.172 -39.49,-75.192 -19.5,-15.02 -49.18,-22.52 -89.02,-22.52 h -60.11 l 36.89,189.872 z M 1139.09,715.938 h 98.82 l 23.44,120.621 H 1346 c 37.36,0 68.08,3.918 92.2,11.777 24.12,7.836 46.05,20.992 65.78,39.465 16.56,15.219 29.96,32.012 40.23,50.371 10.24,18.351 17.53,38.605 21.83,60.754 10.46,53.784 2.58,95.674 -23.64,125.674 -26.22,30.01 -67.92,45.01 -125.1,45.01 h -190.04 l -88.17,-453.672" /></g></g></svg>